<?xml version="1.0" encoding="UTF-8" standalone="no"?>
<svg
   xmlns:dc="http://purl.org/dc/elements/1.1/"
   xmlns:cc="http://creativecommons.org/ns#"
   xmlns:rdf="http://www.w3.org/1999/02/22-rdf-syntax-ns#"
   xmlns:svg="http://www.w3.org/2000/svg"
   xmlns="http://www.w3.org/2000/svg"
   width="32"
   height="32"
   viewBox="0 0 8.466667 8.466667"
   version="1.1"
   id="svg8">
  <defs
     id="defs2">
    <rect
       x="10.583333"
       y="12.095238"
       width="189.74405"
       height="86.178574"
       id="rect835" />
  </defs>
  <metadata
     id="metadata5">
    <rdf:RDF>
      <cc:Work
         rdf:about="">
        <dc:format>image/svg+xml</dc:format>
        <dc:type
           rdf:resource="http://purl.org/dc/dcmitype/StillImage" />
        <dc:title></dc:title>
      </cc:Work>
    </rdf:RDF>
  </metadata>
  <g
     id="layer1">
    <g
       aria-label=" o x x"
       id="text833"
       style="font-style:normal;font-variant:normal;font-weight:normal;font-stretch:normal;font-size:10.5833px;line-height:1.25;font-family:'Callie Chalk Font';-inkscape-font-specification:'Callie Chalk Font';letter-spacing:0px;word-spacing:0px;white-space:pre;shape-inside:url(#rect835);fill:#000000;fill-opacity:1;stroke:none">
      <g
         id="g899"
         transform="translate(-25.857504,0.34155461)">
        <g
           transform="matrix(0.95113489,0,0,0.95113489,1.2635298,-0.0166901)"
           id="g837">
          <path
             d="m 33.308693,3.6383087 q 0.02117,-0.03175 0,-0.04233 -0.02117,-0.02117 -0.07408,-0.02117 -0.105833,0 -0.0635,0.0635 0.0635,0.05292 0.137583,0 z m -2.137827,-2.222493 q -0.507998,-0.201082 -2.127243,-0.201082 -0.253999,0 -0.592665,0.02117 -0.359832,0.04233 -0.518581,0.232833 -0.148167,0.179916 -0.264583,0.740831 -0.09525,0.486832 -0.09525,1.111246 0,1.608662 0.433916,2.391826 0.730247,1.291163 1.545161,1.291163 0.0635,0 0.211666,-0.02117 0.338666,-0.05292 0.698498,-0.328082 0.370416,-0.285749 1.195913,-1.12183 0.846664,-0.846664 1.015997,-0.846664 h 0.02117 q 0.15875,0.0635 0.15875,-0.04233 0,-0.105833 -0.148166,-0.105833 -0.137583,0 -0.137583,-0.201083 0,-0.253999 0.179916,-0.412749 0.169333,-0.158749 0.169333,-0.444498 0,-0.02117 -0.01058,-0.07408 0,-0.0635 0,-0.09525 -0.04233,-0.550332 -0.243416,-1.047747 -0.05292,-0.148166 -0.476248,-0.380999 -0.423332,-0.243415 -1.015997,-0.465665 z M 27.604294,0.34690266 q 0.04233,-0.127 0.253999,-0.127 0.232833,0 0.370416,0.127 0.09525,0.08467 0.264582,0.08467 0.148167,0 0.370416,-0.04233 0.317499,-0.0635 0.698498,-0.0635 0.761997,0 1.576911,0.232833 0.814914,0.222249 1.354663,0.59266504 0.486831,0.328082 0.529165,0.412749 0.04233,0.07408 0.275165,0.349248 0.232833,0.275166 0.423332,0.804331 0.1905,0.518582 0.1905,0.899581 0,0.412748 -0.243416,0.878414 -0.243416,0.465665 -0.243416,0.613831 0,0.148166 -0.370415,0.634998 -0.857248,1.079496 -1.693328,1.672161 -0.825498,0.582082 -1.513412,0.582082 -0.370416,0 -0.888997,-0.328083 -0.518582,-0.338665 -1.015997,-0.89958 -0.603248,-0.656165 -0.656165,-0.867831 -0.01058,-0.116416 -0.179916,-0.328082 -0.137583,-0.148166 -0.275166,-0.793747 -0.126999,-0.645582 -0.126999,-1.15358 0,-0.497415 0.126999,-1.18533 0.127,-0.687914 0.243416,-0.825497 0.05292,-0.07408 0.05292,-0.264582 0,-0.116417 -0.01058,-0.169333 -0.02117,-0.148166 -0.02117,-0.169333 0,-0.09525 0.05292,-0.13758304 0.05292,-0.05292 0.211666,-0.105833 0.243416,-0.07408 0.243416,-0.169333 0,-0.02117 -0.01058,-0.0635 -0.01058,-0.05292 -0.01058,-0.09525 0,-0.05292 0.02117,-0.09525 z"
             style="font-style:normal;font-variant:normal;font-weight:normal;font-stretch:normal;font-family:'Callie Chalk Font';-inkscape-font-specification:'Callie Chalk Font';fill:#ffffff;fill-opacity:1"
             id="path839" />
          <rect
             style="fill:none;stroke:none;stroke-width:0.0983526;stroke-linecap:square;stroke-dashoffset:6.57637;paint-order:markers fill stroke"
             id="rect868"
             width="8.9016466"
             height="8.9016476"
             x="25.857504"
             y="-0.34155461" />
        </g>
      </g>
    </g>
  </g>
</svg>
