<?xml version="1.0" encoding="UTF-8" standalone="no"?>
<svg
   xmlns:dc="http://purl.org/dc/elements/1.1/"
   xmlns:cc="http://creativecommons.org/ns#"
   xmlns:rdf="http://www.w3.org/1999/02/22-rdf-syntax-ns#"
   xmlns:svg="http://www.w3.org/2000/svg"
   xmlns="http://www.w3.org/2000/svg"
   xmlns:sodipodi="http://sodipodi.sourceforge.net/DTD/sodipodi-0.dtd"
   xmlns:inkscape="http://www.inkscape.org/namespaces/inkscape"
   width="34"
   height="34"
   viewBox="0 0 8.9958336 8.9958336"
   version="1.1"
   id="svg8"
   inkscape:version="1.0 (4035a4fb49, 2020-05-01)"
   sodipodi:docname="1.svg">
  <defs
     id="defs2">
    <rect
       x="10.583333"
       y="12.095238"
       width="189.74405"
       height="86.178574"
       id="rect835" />
  </defs>
  <sodipodi:namedview
     inkscape:pagecheckerboard="true"
     id="base"
     pagecolor="#ffffff"
     bordercolor="#666666"
     borderopacity="1.0"
     inkscape:pageopacity="0.0"
     inkscape:pageshadow="2"
     inkscape:zoom="3.959798"
     inkscape:cx="139.58928"
     inkscape:cy="63.09348"
     inkscape:document-units="mm"
     inkscape:current-layer="g903"
     inkscape:document-rotation="0"
     showgrid="false"
     inkscape:window-width="1920"
     inkscape:window-height="1013"
     inkscape:window-x="-9"
     inkscape:window-y="-9"
     inkscape:window-maximized="1"
     units="px" />
  <metadata
     id="metadata5">
    <rdf:RDF>
      <cc:Work
         rdf:about="">
        <dc:format>image/svg+xml</dc:format>
        <dc:type
           rdf:resource="http://purl.org/dc/dcmitype/StillImage" />
        <dc:title></dc:title>
      </cc:Work>
    </rdf:RDF>
  </metadata>
  <g
     inkscape:label="Calque 1"
     inkscape:groupmode="layer"
     id="layer1">
    <g
       aria-label=" o x x"
       id="text833"
       style="font-style:normal;font-variant:normal;font-weight:normal;font-stretch:normal;font-size:10.5833px;line-height:1.25;font-family:'Callie Chalk Font';-inkscape-font-specification:'Callie Chalk Font';letter-spacing:0px;word-spacing:0px;white-space:pre;shape-inside:url(#rect835);fill:#000000;fill-opacity:1;stroke:none">
      <g
         id="g903"
         transform="translate(-36.534935,0.34155461)">
        <g
           id="g837">
          <path
             d="m 38.641556,7.03555 c 0,-0.08467 0.04586,-0.211666 0.137583,-0.380999 0.09878,-0.162277 0.148166,-0.282221 0.148166,-0.359832 0,-0.119944 0.08114,-0.229305 0.243416,-0.328082 0.126999,-0.08467 0.190499,-0.176389 0.190499,-0.275166 0,-0.04233 -0.0035,-0.07408 -0.01058,-0.09525 -0.0071,-0.02117 -0.01058,-0.04939 -0.01058,-0.08467 0,-0.09878 0.08467,-0.253999 0.253999,-0.465665 0.197555,-0.225777 0.296332,-0.373944 0.296332,-0.444499 0,-0.05645 0.05997,-0.179918 0.179916,-0.370415 0.127,-0.197555 0.264583,-0.384527 0.412749,-0.560915 0.07761,-0.09172 0.116416,-0.162277 0.116416,-0.211666 0.276168,-0.371909 0.418701,-0.617825 0.550329,-0.814911 0.02822,0 0.06703,-0.01764 0.116416,-0.05292 0.09878,-0.07761 0.148166,-0.158749 0.148166,-0.243416 0,-0.07056 0.109361,-0.197555 0.328083,-0.380998 0.225777,-0.169333 0.349248,-0.321027 0.370415,-0.455082 0.02117,-0.148167 0.151694,-0.278694 0.391582,-0.391582 0.232833,-0.105833 0.349249,-0.22225001 0.349249,-0.34924905 0,-0.176389 0.06703,-0.264583 0.201083,-0.264583 0.05645,0 0.09878,0.0071 0.126999,0.02117 0.09878,0.03528 0.148167,0.105835 0.148167,0.211666 0,0.19755504 -0.215194,0.62794205 -0.645582,1.29116205 C 42.585599,2.177815 42.469185,2.354203 42.33513,2.558813 42.208131,2.763424 42.09877,2.936284 42.007048,3.077395 41.915328,3.21145 41.851826,3.3067 41.816549,3.363144 L 41.604883,3.73356 c -0.225969,0.352219 -0.303245,0.538606 -0.465662,0.846664 -0.02117,0 -0.05997,0.02822 -0.116417,0.08467 -0.162277,0.162277 -0.564443,0.871358 -1.206496,2.127243 -0.275166,0.5362214 -0.444499,0.8360814 -0.507998,0.8995814 -0.01411,0.01411 -0.03528,0.02117 -0.0635,0.02117 -0.09878,0 -0.225777,-0.08467 -0.380999,-0.253999 -0.148166,-0.169333 -0.222249,-0.310443 -0.222249,-0.4233324 z"
             style="font-style:normal;font-variant:normal;font-weight:normal;font-stretch:normal;font-family:'Callie Chalk Font';-inkscape-font-specification:'Callie Chalk Font';fill:#ffffff;fill-opacity:1"
             id="path843"
             sodipodi:nodetypes="scscssscscccccscccsscsccccccscsscss" />
          <rect
             y="-0.34155461"
             x="36.534935"
             height="8.9016476"
             width="8.9016466"
             id="rect868-7"
             style="font-style:normal;font-variant:normal;font-weight:normal;font-stretch:normal;font-size:10.5833px;line-height:1.25;font-family:'Callie Chalk Font';-inkscape-font-specification:'Callie Chalk Font';letter-spacing:0px;word-spacing:0px;white-space:pre;shape-inside:url(#rect835);fill:none;fill-opacity:1;stroke:none;stroke-width:0.0983525;stroke-linecap:square;stroke-dashoffset:6.57637;paint-order:markers fill stroke" />
        </g>
      </g>
    </g>
  </g>
</svg>
