<?xml version="1.0" encoding="UTF-8" standalone="no"?>
<svg
   xmlns:dc="http://purl.org/dc/elements/1.1/"
   xmlns:cc="http://creativecommons.org/ns#"
   xmlns:rdf="http://www.w3.org/1999/02/22-rdf-syntax-ns#"
   xmlns:svg="http://www.w3.org/2000/svg"
   xmlns="http://www.w3.org/2000/svg"
   xmlns:sodipodi="http://sodipodi.sourceforge.net/DTD/sodipodi-0.dtd"
   xmlns:inkscape="http://www.inkscape.org/namespaces/inkscape"
   width="34"
   height="34"
   viewBox="0 0 8.9958336 8.9958336"
   version="1.1"
   id="svg8"
   sodipodi:docname="2.svg"
   inkscape:version="1.0 (4035a4fb49, 2020-05-01)">
  <sodipodi:namedview
     inkscape:pagecheckerboard="true"
     inkscape:document-rotation="0"
     pagecolor="#ffffff"
     bordercolor="#666666"
     borderopacity="1"
     objecttolerance="10"
     gridtolerance="10"
     guidetolerance="10"
     inkscape:pageopacity="0"
     inkscape:pageshadow="2"
     inkscape:window-width="1920"
     inkscape:window-height="1013"
     id="namedview11"
     showgrid="false"
     units="px"
     inkscape:zoom="17.877362"
     inkscape:cx="17.007874"
     inkscape:cy="17.007874"
     inkscape:window-x="-9"
     inkscape:window-y="-9"
     inkscape:window-maximized="1"
     inkscape:current-layer="g907" />
  <defs
     id="defs2">
    <rect
       x="10.583333"
       y="12.095238"
       width="189.74405"
       height="86.178574"
       id="rect835" />
  </defs>
  <metadata
     id="metadata5">
    <rdf:RDF>
      <cc:Work
         rdf:about="">
        <dc:format>image/svg+xml</dc:format>
        <dc:type
           rdf:resource="http://purl.org/dc/dcmitype/StillImage" />
        <dc:title></dc:title>
      </cc:Work>
    </rdf:RDF>
  </metadata>
  <g
     id="layer1">
    <g
       aria-label=" o x x"
       id="text833"
       style="font-style:normal;font-variant:normal;font-weight:normal;font-stretch:normal;font-size:10.5833px;line-height:1.25;font-family:'Callie Chalk Font';-inkscape-font-specification:'Callie Chalk Font';letter-spacing:0px;word-spacing:0px;white-space:pre;shape-inside:url(#rect835);fill:#000000;fill-opacity:1;stroke:none">
      <g
         id="g907"
         transform="translate(-47.212364,0.34155461)">
        <g
           id="g837">
          <path
             d="m 48.985611,6.7921367 q 0,-0.126999 0.137583,-0.380999 0.148166,-0.243416 0.148166,-0.359832 0,-0.179916 0.243416,-0.328082 0.190499,-0.127 0.190499,-0.275166 0,-0.0635 -0.01058,-0.09525 -0.01058,-0.03175 -0.01058,-0.08467 0,-0.148166 0.253999,-0.465665 0.296332,-0.338666 0.296332,-0.444499 0,-0.08467 0.179917,-0.370415 0.190499,-0.296333 0.412748,-0.560915 0.116417,-0.137583 0.116417,-0.211666 0,-0.08467 -0.137583,-0.349249 -0.1905,-0.380999 -0.1905,-0.603248 0,-0.232833 -0.201082,-0.486832 -0.15875,-0.201083 -0.380999,-0.81491402 -0.22225,-0.61383102 -0.22225,-0.81491402 0,-0.01058 0.01058,-0.03175 v -0.01058 q 0.03175,-0.0635 0.116416,-0.0635 0.0635,0 0.370416,0.497415 0.317499,0.49741504 0.603248,1.05833004 0.232832,0.444499 0.349249,0.624415 0.126999,0.179916 0.232832,0.179916 0.04233,0 0.116416,-0.05292 0.148167,-0.116416 0.148167,-0.243416 0,-0.105833 0.328082,-0.380998 0.338665,-0.254 0.370415,-0.455082 0.03175,-0.22225 0.391582,-0.39158202 0.349249,-0.15875002 0.349249,-0.34924902 0,-0.264583 0.201083,-0.264583 0.08467,0 0.127,0.02117 0.148166,0.05292 0.148166,0.211666 0,0.296332 -0.645581,1.29116204 -0.148167,0.22225 -0.349249,0.529165 -0.1905,0.306916 -0.328083,0.518582 -0.137582,0.201083 -0.190499,0.285749 l -0.211666,0.370416 0.306916,0.571498 q 0.285749,0.571498 0.370415,0.571498 0.08467,0 0.222249,0.380999 0.137583,0.338665 0.254,0.433915 0.09525,0.05292 0.09525,0.201083 0,0.137583 0.275166,0.550331 0.359832,0.539749 0.613832,1.079497 0.253999,0.550332 0.253999,0.783164 0,0.116416 -0.07408,0.116416 -0.08467,0 -0.412749,-0.349248 -0.264583,-0.296333 -0.582082,-0.592665 -0.264582,-0.243416 -0.264582,-0.380999 0,-0.07408 -0.285749,-0.560915 -0.285749,-0.476248 -0.285749,-0.560915 0,-0.126999 -0.127,-0.211666 -0.126999,-0.07408 -0.455082,-0.666748 -0.285749,-0.518581 -0.370415,-0.518581 -0.03175,0 -0.116416,0.08467 -0.243416,0.243416 -1.206497,2.127243 -0.412748,0.804331 -0.507998,0.899581 -0.02117,0.02117 -0.0635,0.02117 -0.148166,0 -0.380999,-0.253999 -0.222255,-0.254006 -0.222255,-0.423339 z"
             style="font-style:normal;font-variant:normal;font-weight:normal;font-stretch:normal;font-family:'Callie Chalk Font';-inkscape-font-specification:'Callie Chalk Font';fill:#ffffff;fill-opacity:1"
             id="path841" />
          <rect
             y="-0.34155461"
             x="47.212364"
             height="8.9016476"
             width="8.9016466"
             id="rect868-2"
             style="font-style:normal;font-variant:normal;font-weight:normal;font-stretch:normal;font-size:10.5833px;line-height:1.25;font-family:'Callie Chalk Font';-inkscape-font-specification:'Callie Chalk Font';letter-spacing:0px;word-spacing:0px;white-space:pre;shape-inside:url(#rect835);fill:none;fill-opacity:1;stroke:none;stroke-width:0.0983525;stroke-linecap:square;stroke-dashoffset:6.57637;paint-order:markers fill stroke" />
        </g>
      </g>
    </g>
  </g>
</svg>
