<?xml version="1.0" encoding="UTF-8" standalone="no"?>
<svg
   xmlns:dc="http://purl.org/dc/elements/1.1/"
   xmlns:cc="http://creativecommons.org/ns#"
   xmlns:rdf="http://www.w3.org/1999/02/22-rdf-syntax-ns#"
   xmlns:svg="http://www.w3.org/2000/svg"
   xmlns="http://www.w3.org/2000/svg"
   id="svg8"
   version="1.1"
   viewBox="0 0 8.466667 8.466667"
   height="32"
   width="32">
  <defs
     id="defs2">
    <rect
       id="rect835"
       height="86.178574"
       width="189.74405"
       y="12.095238"
       x="10.583333" />
  </defs>
  <metadata
     id="metadata5">
    <rdf:RDF>
      <cc:Work
         rdf:about="">
        <dc:format>image/svg+xml</dc:format>
        <dc:type
           rdf:resource="http://purl.org/dc/dcmitype/StillImage" />
        <dc:title></dc:title>
      </cc:Work>
    </rdf:RDF>
  </metadata>
  <g
     id="layer1">
    <g
       style="font-style:normal;font-variant:normal;font-weight:normal;font-stretch:normal;font-size:10.5833px;line-height:1.25;font-family:'Callie Chalk Font';-inkscape-font-specification:'Callie Chalk Font';letter-spacing:0px;word-spacing:0px;white-space:pre;shape-inside:url(#rect835);fill:#000000;fill-opacity:1;stroke:none"
       id="text833"
       aria-label=" o x x">
      <g
         transform="translate(-47.212364,0.34155461)"
         id="g907">
        <g
           transform="matrix(0.95113493,0,0,0.95113493,2.3070358,-0.01669009)"
           id="g837">
          <path
             id="path841"
             style="font-style:normal;font-variant:normal;font-weight:normal;font-stretch:normal;font-family:'Callie Chalk Font';-inkscape-font-specification:'Callie Chalk Font';fill:#ffffff;fill-opacity:1"
             d="m 48.985611,6.7921367 q 0,-0.126999 0.137583,-0.380999 0.148166,-0.243416 0.148166,-0.359832 0,-0.179916 0.243416,-0.328082 0.190499,-0.127 0.190499,-0.275166 0,-0.0635 -0.01058,-0.09525 -0.01058,-0.03175 -0.01058,-0.08467 0,-0.148166 0.253999,-0.465665 0.296332,-0.338666 0.296332,-0.444499 0,-0.08467 0.179917,-0.370415 0.190499,-0.296333 0.412748,-0.560915 0.116417,-0.137583 0.116417,-0.211666 0,-0.08467 -0.137583,-0.349249 -0.1905,-0.380999 -0.1905,-0.603248 0,-0.232833 -0.201082,-0.486832 -0.15875,-0.201083 -0.380999,-0.81491402 -0.22225,-0.61383102 -0.22225,-0.81491402 0,-0.01058 0.01058,-0.03175 v -0.01058 q 0.03175,-0.0635 0.116416,-0.0635 0.0635,0 0.370416,0.497415 0.317499,0.49741504 0.603248,1.05833004 0.232832,0.444499 0.349249,0.624415 0.126999,0.179916 0.232832,0.179916 0.04233,0 0.116416,-0.05292 0.148167,-0.116416 0.148167,-0.243416 0,-0.105833 0.328082,-0.380998 0.338665,-0.254 0.370415,-0.455082 0.03175,-0.22225 0.391582,-0.39158202 0.349249,-0.15875002 0.349249,-0.34924902 0,-0.264583 0.201083,-0.264583 0.08467,0 0.127,0.02117 0.148166,0.05292 0.148166,0.211666 0,0.296332 -0.645581,1.29116204 -0.148167,0.22225 -0.349249,0.529165 -0.1905,0.306916 -0.328083,0.518582 -0.137582,0.201083 -0.190499,0.285749 l -0.211666,0.370416 0.306916,0.571498 q 0.285749,0.571498 0.370415,0.571498 0.08467,0 0.222249,0.380999 0.137583,0.338665 0.254,0.433915 0.09525,0.05292 0.09525,0.201083 0,0.137583 0.275166,0.550331 0.359832,0.539749 0.613832,1.079497 0.253999,0.550332 0.253999,0.783164 0,0.116416 -0.07408,0.116416 -0.08467,0 -0.412749,-0.349248 -0.264583,-0.296333 -0.582082,-0.592665 -0.264582,-0.243416 -0.264582,-0.380999 0,-0.07408 -0.285749,-0.560915 -0.285749,-0.476248 -0.285749,-0.560915 0,-0.126999 -0.127,-0.211666 -0.126999,-0.07408 -0.455082,-0.666748 -0.285749,-0.518581 -0.370415,-0.518581 -0.03175,0 -0.116416,0.08467 -0.243416,0.243416 -1.206497,2.127243 -0.412748,0.804331 -0.507998,0.899581 -0.02117,0.02117 -0.0635,0.02117 -0.148166,0 -0.380999,-0.253999 -0.222255,-0.254006 -0.222255,-0.423339 z" />
          <rect
             style="font-style:normal;font-variant:normal;font-weight:normal;font-stretch:normal;font-size:10.5833px;line-height:1.25;font-family:'Callie Chalk Font';-inkscape-font-specification:'Callie Chalk Font';letter-spacing:0px;word-spacing:0px;white-space:pre;shape-inside:url(#rect835);fill:none;fill-opacity:1;stroke:none;stroke-width:0.0983525;stroke-linecap:square;stroke-dashoffset:6.57637;paint-order:markers fill stroke"
             id="rect868-2"
             width="8.9016466"
             height="8.9016476"
             x="47.212364"
             y="-0.34155461" />
        </g>
      </g>
    </g>
  </g>
</svg>
