<?xml version="1.0" encoding="UTF-8" standalone="no"?>
<svg
   xmlns:dc="http://purl.org/dc/elements/1.1/"
   xmlns:cc="http://creativecommons.org/ns#"
   xmlns:rdf="http://www.w3.org/1999/02/22-rdf-syntax-ns#"
   xmlns:svg="http://www.w3.org/2000/svg"
   xmlns="http://www.w3.org/2000/svg"
   xmlns:sodipodi="http://sodipodi.sourceforge.net/DTD/sodipodi-0.dtd"
   xmlns:inkscape="http://www.inkscape.org/namespaces/inkscape"
   sodipodi:docname="0123.svg"
   inkscape:version="1.0 (4035a4fb49, 2020-05-01)"
   id="svg8"
   version="1.1"
   viewBox="0 0 210 297"
   height="297mm"
   width="210mm">
  <defs
     id="defs2">
    <rect
       id="rect835"
       height="86.178571"
       width="189.74405"
       y="12.095238"
       x="10.583333" />
  </defs>
  <sodipodi:namedview
     inkscape:window-maximized="1"
     inkscape:window-y="-9"
     inkscape:window-x="-9"
     inkscape:window-height="1013"
     inkscape:window-width="1920"
     showgrid="false"
     inkscape:document-rotation="0"
     inkscape:current-layer="text833"
     inkscape:document-units="mm"
     inkscape:cy="63.09348"
     inkscape:cx="139.58928"
     inkscape:zoom="3.959798"
     inkscape:pageshadow="2"
     inkscape:pageopacity="0.0"
     borderopacity="1.0"
     bordercolor="#666666"
     pagecolor="#ffffff"
     id="base" />
  <metadata
     id="metadata5">
    <rdf:RDF>
      <cc:Work
         rdf:about="">
        <dc:format>image/svg+xml</dc:format>
        <dc:type
           rdf:resource="http://purl.org/dc/dcmitype/StillImage" />
        <dc:title></dc:title>
      </cc:Work>
    </rdf:RDF>
  </metadata>
  <g
     id="layer1"
     inkscape:groupmode="layer"
     inkscape:label="Calque 1">
    <g
       style="font-style:normal;font-variant:normal;font-weight:normal;font-stretch:normal;font-size:10.5833px;line-height:1.25;font-family:'Callie Chalk Font';-inkscape-font-specification:'Callie Chalk Font';letter-spacing:0px;word-spacing:0px;white-space:pre;shape-inside:url(#rect835);fill:#000000;fill-opacity:1;stroke:none"
       id="text833"
       aria-label=" o x x">
      <g
         transform="translate(-24.054258,2.4054258)"
         id="g899">
        <path
           d="m 33.308693,3.6383087 q 0.02117,-0.03175 0,-0.04233 -0.02117,-0.02117 -0.07408,-0.02117 -0.105833,0 -0.0635,0.0635 0.0635,0.05292 0.137583,0 z m -2.137827,-2.222493 q -0.507998,-0.201082 -2.127243,-0.201082 -0.253999,0 -0.592665,0.02117 -0.359832,0.04233 -0.518581,0.232833 -0.148167,0.179916 -0.264583,0.740831 -0.09525,0.486832 -0.09525,1.111246 0,1.608662 0.433916,2.391826 0.730247,1.291163 1.545161,1.291163 0.0635,0 0.211666,-0.02117 0.338666,-0.05292 0.698498,-0.328082 0.370416,-0.285749 1.195913,-1.12183 0.846664,-0.846664 1.015997,-0.846664 h 0.02117 q 0.15875,0.0635 0.15875,-0.04233 0,-0.105833 -0.148166,-0.105833 -0.137583,0 -0.137583,-0.201083 0,-0.253999 0.179916,-0.412749 0.169333,-0.158749 0.169333,-0.444498 0,-0.02117 -0.01058,-0.07408 0,-0.0635 0,-0.09525 -0.04233,-0.550332 -0.243416,-1.047747 -0.05292,-0.148166 -0.476248,-0.380999 -0.423332,-0.243415 -1.015997,-0.465665 z M 27.604294,0.34690266 q 0.04233,-0.127 0.253999,-0.127 0.232833,0 0.370416,0.127 0.09525,0.08467 0.264582,0.08467 0.148167,0 0.370416,-0.04233 0.317499,-0.0635 0.698498,-0.0635 0.761997,0 1.576911,0.232833 0.814914,0.222249 1.354663,0.59266504 0.486831,0.328082 0.529165,0.412749 0.04233,0.07408 0.275165,0.349248 0.232833,0.275166 0.423332,0.804331 0.1905,0.518582 0.1905,0.899581 0,0.412748 -0.243416,0.878414 -0.243416,0.465665 -0.243416,0.613831 0,0.148166 -0.370415,0.634998 -0.857248,1.079496 -1.693328,1.672161 -0.825498,0.582082 -1.513412,0.582082 -0.370416,0 -0.888997,-0.328083 -0.518582,-0.338665 -1.015997,-0.89958 -0.603248,-0.656165 -0.656165,-0.867831 -0.01058,-0.116416 -0.179916,-0.328082 -0.137583,-0.148166 -0.275166,-0.793747 -0.126999,-0.645582 -0.126999,-1.15358 0,-0.497415 0.126999,-1.18533 0.127,-0.687914 0.243416,-0.825497 0.05292,-0.07408 0.05292,-0.264582 0,-0.116417 -0.01058,-0.169333 -0.02117,-0.148166 -0.02117,-0.169333 0,-0.09525 0.05292,-0.13758304 0.05292,-0.05292 0.211666,-0.105833 0.243416,-0.07408 0.243416,-0.169333 0,-0.02117 -0.01058,-0.0635 -0.01058,-0.05292 -0.01058,-0.09525 0,-0.05292 0.02117,-0.09525 z"
           style="font-style:normal;font-variant:normal;font-weight:normal;font-stretch:normal;font-family:'Callie Chalk Font';-inkscape-font-specification:'Callie Chalk Font'"
           id="path839" />
        <rect
           style="fill:none;stroke:none;stroke-width:0.0983526;stroke-linecap:square;stroke-dashoffset:6.57637;paint-order:markers fill stroke"
           id="rect868"
           width="8.9016466"
           height="8.9016476"
           x="25.857504"
           y="-0.34155461" />
      </g>
      <g
         transform="translate(-24.054258,2.4054258)"
         id="g903">
        <path
           d="m 38.641556,7.03555 c 0,-0.08467 0.04586,-0.211666 0.137583,-0.380999 0.09878,-0.162277 0.148166,-0.282221 0.148166,-0.359832 0,-0.119944 0.08114,-0.229305 0.243416,-0.328082 0.126999,-0.08467 0.190499,-0.176389 0.190499,-0.275166 0,-0.04233 -0.0035,-0.07408 -0.01058,-0.09525 -0.0071,-0.02117 -0.01058,-0.04939 -0.01058,-0.08467 0,-0.09878 0.08467,-0.253999 0.253999,-0.465665 0.197555,-0.225777 0.296332,-0.373944 0.296332,-0.444499 0,-0.05645 0.05997,-0.179918 0.179916,-0.370415 0.127,-0.197555 0.264583,-0.384527 0.412749,-0.560915 0.07761,-0.09172 0.116416,-0.162277 0.116416,-0.211666 0.276168,-0.371909 0.418701,-0.617825 0.550329,-0.814911 0.02822,0 0.06703,-0.01764 0.116416,-0.05292 0.09878,-0.07761 0.148166,-0.158749 0.148166,-0.243416 0,-0.07056 0.109361,-0.197555 0.328083,-0.380998 0.225777,-0.169333 0.349248,-0.321027 0.370415,-0.455082 0.02117,-0.148167 0.151694,-0.278694 0.391582,-0.391582 0.232833,-0.105833 0.349249,-0.22225001 0.349249,-0.34924905 0,-0.176389 0.06703,-0.264583 0.201083,-0.264583 0.05645,0 0.09878,0.0071 0.126999,0.02117 0.09878,0.03528 0.148167,0.105835 0.148167,0.211666 0,0.19755504 -0.215194,0.62794205 -0.645582,1.29116205 C 42.585599,2.177815 42.469185,2.354203 42.33513,2.558813 42.208131,2.763424 42.09877,2.936284 42.007048,3.077395 41.915328,3.21145 41.851826,3.3067 41.816549,3.363144 L 41.604883,3.73356 c -0.225969,0.352219 -0.303245,0.538606 -0.465662,0.846664 -0.02117,0 -0.05997,0.02822 -0.116417,0.08467 -0.162277,0.162277 -0.564443,0.871358 -1.206496,2.127243 -0.275166,0.5362214 -0.444499,0.8360814 -0.507998,0.8995814 -0.01411,0.01411 -0.03528,0.02117 -0.0635,0.02117 -0.09878,0 -0.225777,-0.08467 -0.380999,-0.253999 -0.148166,-0.169333 -0.222249,-0.310443 -0.222249,-0.4233324 z"
           style="font-style:normal;font-variant:normal;font-weight:normal;font-stretch:normal;font-family:'Callie Chalk Font';-inkscape-font-specification:'Callie Chalk Font'"
           id="path843"
           sodipodi:nodetypes="scscssscscccccscccsscsccccccscsscss" />
        <rect
           y="-0.34155461"
           x="36.534935"
           height="8.9016476"
           width="8.9016466"
           id="rect868-7"
           style="font-style:normal;font-variant:normal;font-weight:normal;font-stretch:normal;font-size:10.5833px;line-height:1.25;font-family:'Callie Chalk Font';-inkscape-font-specification:'Callie Chalk Font';letter-spacing:0px;word-spacing:0px;white-space:pre;shape-inside:url(#rect835);fill:none;fill-opacity:1;stroke:none;stroke-width:0.0983525;stroke-linecap:square;stroke-dashoffset:6.57637;paint-order:markers fill stroke" />
      </g>
      <g
         transform="translate(-24.054258,2.4054258)"
         id="g907">
        <path
           d="m 48.985611,6.7921367 q 0,-0.126999 0.137583,-0.380999 0.148166,-0.243416 0.148166,-0.359832 0,-0.179916 0.243416,-0.328082 0.190499,-0.127 0.190499,-0.275166 0,-0.0635 -0.01058,-0.09525 -0.01058,-0.03175 -0.01058,-0.08467 0,-0.148166 0.253999,-0.465665 0.296332,-0.338666 0.296332,-0.444499 0,-0.08467 0.179917,-0.370415 0.190499,-0.296333 0.412748,-0.560915 0.116417,-0.137583 0.116417,-0.211666 0,-0.08467 -0.137583,-0.349249 -0.1905,-0.380999 -0.1905,-0.603248 0,-0.232833 -0.201082,-0.486832 -0.15875,-0.201083 -0.380999,-0.81491402 -0.22225,-0.61383102 -0.22225,-0.81491402 0,-0.01058 0.01058,-0.03175 v -0.01058 q 0.03175,-0.0635 0.116416,-0.0635 0.0635,0 0.370416,0.497415 0.317499,0.49741504 0.603248,1.05833004 0.232832,0.444499 0.349249,0.624415 0.126999,0.179916 0.232832,0.179916 0.04233,0 0.116416,-0.05292 0.148167,-0.116416 0.148167,-0.243416 0,-0.105833 0.328082,-0.380998 0.338665,-0.254 0.370415,-0.455082 0.03175,-0.22225 0.391582,-0.39158202 0.349249,-0.15875002 0.349249,-0.34924902 0,-0.264583 0.201083,-0.264583 0.08467,0 0.127,0.02117 0.148166,0.05292 0.148166,0.211666 0,0.296332 -0.645581,1.29116204 -0.148167,0.22225 -0.349249,0.529165 -0.1905,0.306916 -0.328083,0.518582 -0.137582,0.201083 -0.190499,0.285749 l -0.211666,0.370416 0.306916,0.571498 q 0.285749,0.571498 0.370415,0.571498 0.08467,0 0.222249,0.380999 0.137583,0.338665 0.254,0.433915 0.09525,0.05292 0.09525,0.201083 0,0.137583 0.275166,0.550331 0.359832,0.539749 0.613832,1.079497 0.253999,0.550332 0.253999,0.783164 0,0.116416 -0.07408,0.116416 -0.08467,0 -0.412749,-0.349248 -0.264583,-0.296333 -0.582082,-0.592665 -0.264582,-0.243416 -0.264582,-0.380999 0,-0.07408 -0.285749,-0.560915 -0.285749,-0.476248 -0.285749,-0.560915 0,-0.126999 -0.127,-0.211666 -0.126999,-0.07408 -0.455082,-0.666748 -0.285749,-0.518581 -0.370415,-0.518581 -0.03175,0 -0.116416,0.08467 -0.243416,0.243416 -1.206497,2.127243 -0.412748,0.804331 -0.507998,0.899581 -0.02117,0.02117 -0.0635,0.02117 -0.148166,0 -0.380999,-0.253999 -0.222255,-0.254006 -0.222255,-0.423339 z"
           style="font-style:normal;font-variant:normal;font-weight:normal;font-stretch:normal;font-family:'Callie Chalk Font';-inkscape-font-specification:'Callie Chalk Font'"
           id="path841" />
        <rect
           y="-0.34155461"
           x="47.212364"
           height="8.9016476"
           width="8.9016466"
           id="rect868-2"
           style="font-style:normal;font-variant:normal;font-weight:normal;font-stretch:normal;font-size:10.5833px;line-height:1.25;font-family:'Callie Chalk Font';-inkscape-font-specification:'Callie Chalk Font';letter-spacing:0px;word-spacing:0px;white-space:pre;shape-inside:url(#rect835);fill:none;fill-opacity:1;stroke:none;stroke-width:0.0983525;stroke-linecap:square;stroke-dashoffset:6.57637;paint-order:markers fill stroke" />
      </g>
      <g
         transform="translate(-24.054258,2.4054258)"
         id="g913">
        <g
           id="g866"
           transform="translate(10.757597,-16.437075)">
          <path
             d="m 54.583385,20.075384 q 0.02117,-0.03175 0,-0.04233 -0.02117,-0.02117 -0.07408,-0.02117 -0.105833,0 -0.0635,0.0635 0.0635,0.05292 0.137583,0 z m -2.137827,-2.222493 q -0.507998,-0.201082 -2.127243,-0.201082 -0.253999,0 -0.592665,0.02117 -0.359832,0.04233 -0.518581,0.232833 -0.148167,0.179916 -0.264583,0.740831 -0.09525,0.486832 -0.09525,1.111246 0,1.608662 0.433916,2.391826 0.730247,1.291163 1.545161,1.291163 0.0635,0 0.211666,-0.02117 0.338666,-0.05292 0.698498,-0.328082 0.370416,-0.28575 1.195913,-1.121831 0.846664,-0.846664 1.015997,-0.846664 h 0.02117 q 0.15875,0.0635 0.15875,-0.04233 0,-0.105833 -0.148166,-0.105833 -0.137583,0 -0.137583,-0.201083 0,-0.253999 0.179915,-0.412749 0.169334,-0.158749 0.169334,-0.444498 0,-0.02117 -0.01058,-0.07408 0,-0.0635 0,-0.09525 -0.04233,-0.550332 -0.243414,-1.047747 -0.05292,-0.148165 -0.47625,-0.380998 -0.423332,-0.243415 -1.015997,-0.465665 z m -3.566572,-1.068913 q 0.04233,-0.127 0.253999,-0.127 0.232833,0 0.370416,0.127 0.09525,0.08467 0.264582,0.08467 0.148167,0 0.370416,-0.04233 0.317499,-0.0635 0.698498,-0.0635 0.761997,0 1.576911,0.232833 0.814914,0.222249 1.354663,0.592665 0.486831,0.328082 0.529165,0.412749 0.04233,0.07408 0.275165,0.349248 0.232833,0.275166 0.423332,0.804331 0.1905,0.518582 0.1905,0.899581 0,0.412748 -0.243416,0.878414 -0.243416,0.465665 -0.243416,0.613831 0,0.148166 -0.370415,0.634998 -0.857248,1.079496 -1.693328,1.672161 -0.825498,0.582082 -1.513412,0.582082 -0.370416,0 -0.888998,-0.328083 -0.518582,-0.338665 -1.015996,-0.89958 -0.603248,-0.656165 -0.656166,-0.867831 -0.01058,-0.116416 -0.179915,-0.328082 -0.137583,-0.148166 -0.275166,-0.793747 -0.126999,-0.645582 -0.126999,-1.15358 0,-0.497415 0.126999,-1.18533 0.127,-0.687914 0.243416,-0.825497 0.05292,-0.07408 0.05292,-0.264582 0,-0.116417 -0.01058,-0.169333 -0.02117,-0.148166 -0.02117,-0.169333 0,-0.09525 0.05292,-0.137583 0.05292,-0.05292 0.211666,-0.105833 0.243416,-0.07408 0.243416,-0.169333 0,-0.02117 -0.01058,-0.0635 -0.01058,-0.05292 -0.01058,-0.09525 0,-0.05292 0.02117,-0.09525 z"
             style="font-style:normal;font-variant:normal;font-weight:normal;font-stretch:normal;font-size:10.5833px;line-height:1.25;font-family:'Callie Chalk Font';-inkscape-font-specification:'Callie Chalk Font';letter-spacing:0px;word-spacing:0px;white-space:pre;shape-inside:url(#rect835);fill:#000000;fill-opacity:1;stroke:none;stroke-width:1"
             id="path839-7" />
          <path
             d="m 48.905442,23.229213 q 0,-0.126999 0.137583,-0.380999 0.148167,-0.243416 0.148167,-0.359832 0,-0.179916 0.243416,-0.328082 0.190499,-0.127 0.190499,-0.275166 0,-0.0635 -0.01058,-0.09525 -0.01058,-0.03175 -0.01058,-0.08467 0,-0.148166 0.253999,-0.465665 0.296332,-0.338666 0.296332,-0.444499 0,-0.08467 0.179917,-0.370415 0.190499,-0.296333 0.412748,-0.560915 0.116417,-0.137583 0.116417,-0.211667 0,-0.08467 -0.137583,-0.349249 -0.1905,-0.380998 -0.1905,-0.603248 0,-0.232833 -0.201082,-0.486832 -0.15875,-0.201083 -0.380999,-0.814914 -0.22225,-0.613831 -0.22225,-0.814914 0,-0.01058 0.01058,-0.03175 v -0.01058 q 0.03175,-0.0635 0.116415,-0.0635 0.0635,0 0.370417,0.497415 0.317499,0.497415 0.603248,1.05833 0.232832,0.444499 0.349249,0.624415 0.126999,0.179916 0.232832,0.179916 0.04233,0 0.116416,-0.05292 0.148167,-0.116416 0.148167,-0.243416 0,-0.105833 0.328082,-0.380998 0.338665,-0.254 0.370415,-0.455082 0.03175,-0.22225 0.391582,-0.391582 0.349249,-0.15875 0.349249,-0.349249 0,-0.264583 0.201083,-0.264583 0.08467,0 0.127,0.02117 0.148166,0.05292 0.148166,0.211666 0,0.296332 -0.645581,1.291162 -0.148167,0.22225 -0.349249,0.529165 -0.1905,0.306916 -0.328083,0.518582 -0.137582,0.201083 -0.190499,0.285749 l -0.211666,0.370416 0.306916,0.571498 q 0.285749,0.571498 0.370415,0.571498 0.08467,0 0.222249,0.380999 0.137583,0.338665 0.254,0.433915 0.09525,0.05292 0.09525,0.201083 0,0.137583 0.275166,0.550331 0.359832,0.539749 0.613832,1.079497 0.253999,0.550332 0.253999,0.783164 0,0.116416 -0.07408,0.116416 -0.08467,0 -0.412749,-0.349248 -0.264583,-0.296333 -0.582082,-0.592665 -0.264582,-0.243416 -0.264582,-0.380999 0,-0.07408 -0.285749,-0.560915 -0.285749,-0.476248 -0.285749,-0.560915 0,-0.126999 -0.127,-0.211666 -0.126999,-0.07408 -0.455082,-0.666748 -0.28575,-0.518581 -0.370415,-0.518581 -0.03175,0 -0.116417,0.08467 -0.243415,0.243416 -1.206496,2.127243 -0.412748,0.804331 -0.507998,0.899581 -0.02117,0.02117 -0.0635,0.02117 -0.148166,0 -0.380999,-0.253999 -0.222255,-0.254006 -0.222255,-0.42334 z"
             style="font-style:normal;font-variant:normal;font-weight:normal;font-stretch:normal;font-size:10.5833px;line-height:1.25;font-family:'Callie Chalk Font';-inkscape-font-specification:'Callie Chalk Font';letter-spacing:0px;word-spacing:0px;white-space:pre;shape-inside:url(#rect835);fill:#000000;fill-opacity:1;stroke:none;stroke-width:1"
             id="path841-8" />
        </g>
        <rect
           y="-0.34155461"
           x="57.889793"
           height="8.9016476"
           width="8.9016466"
           id="rect868-73"
           style="font-style:normal;font-variant:normal;font-weight:normal;font-stretch:normal;font-size:10.5833px;line-height:1.25;font-family:'Callie Chalk Font';-inkscape-font-specification:'Callie Chalk Font';letter-spacing:0px;word-spacing:0px;white-space:pre;shape-inside:url(#rect835);fill:none;fill-opacity:1;stroke:none;stroke-width:0.0983525;stroke-linecap:square;stroke-dashoffset:6.57637;paint-order:markers fill stroke" />
      </g>
    </g>
  </g>
</svg>
